solid CATIA STL
  facet normal  1.000000e+000  -0.000000e+000  -0.000000e+000
    outer loop
      vertex  3.000000e+000 -1.007769e+001  9.060676e+000
      vertex  3.000000e+000 -9.780862e+000 -1.183626e+000
      vertex  3.000000e+000 -9.060676e+000 -2.077691e+000
    endloop
  endfacet
  facet normal  1.000000e+000  0.000000e+000  0.000000e+000
    outer loop
      vertex  3.000000e+000  7.500000e+000  9.500000e+000
      vertex  3.000000e+000  9.780862e+000  9.183626e+000
      vertex  3.000000e+000  9.060676e+000  1.007769e+001
    endloop
  endfacet
  facet normal  1.000000e+000  0.000000e+000  0.000000e+000
    outer loop
      vertex  3.000000e+000 -7.500000e+000  9.500000e+000
      vertex  3.000000e+000 -7.500000e+000  1.150000e+001
      vertex  3.000000e+000 -9.780862e+000  1.181637e+001
    endloop
  endfacet
  facet normal  9.999999e-001  0.000000e+000  0.000000e+000
    outer loop
      vertex  3.000000e+000 -7.500000e+000  9.500000e+000
      vertex  3.000000e+000 -9.780862e+000  1.181637e+001
      vertex  3.000000e+000 -9.060676e+000  1.092231e+001
    endloop
  endfacet
  facet normal  9.999999e-001  0.000000e+000  0.000000e+000
    outer loop
      vertex  3.000000e+000 -7.500000e+000  9.500000e+000
      vertex  3.000000e+000 -9.060676e+000  1.092231e+001
      vertex  3.000000e+000 -9.183626e+000  9.780862e+000
    endloop
  endfacet
  facet normal  1.000000e+000  0.000000e+000  0.000000e+000
    outer loop
      vertex  3.000000e+000 -7.500000e+000  9.500000e+000
      vertex  3.000000e+000 -9.183626e+000  9.780862e+000
      vertex  3.000000e+000 -1.007769e+001  9.060676e+000
    endloop
  endfacet
  facet normal  1.000000e+000  -0.000000e+000  0.000000e+000
    outer loop
      vertex  3.000000e+000 -7.500000e+000  9.500000e+000
      vertex  3.000000e+000 -1.007769e+001  9.060676e+000
      vertex  3.000000e+000 -9.060676e+000 -2.077691e+000
    endloop
  endfacet
  facet normal  9.999999e-001  -0.000000e+000  0.000000e+000
    outer loop
      vertex  3.000000e+000 -7.500000e+000  9.500000e+000
      vertex  3.000000e+000 -9.060676e+000 -2.077691e+000
      vertex  3.000000e+000 -9.183626e+000 -3.219138e+000
    endloop
  endfacet
  facet normal  1.000000e+000  0.000000e+000  0.000000e+000
    outer loop
      vertex  3.000000e+000 -7.500000e+000  9.500000e+000
      vertex  3.000000e+000 -9.183626e+000 -3.219138e+000
      vertex  3.000000e+000  7.500000e+000  9.500000e+000
    endloop
  endfacet
  facet normal  1.000000e+000  -0.000000e+000  0.000000e+000
    outer loop
      vertex  3.000000e+000  1.250000e+001  1.250000e+001
      vertex  3.000000e+000 -1.250000e+001  1.250000e+001
      vertex  3.000000e+000  1.007769e+001  1.193932e+001
    endloop
  endfacet
  facet normal  1.000000e+000  -0.000000e+000  0.000000e+000
    outer loop
      vertex  3.000000e+000  1.250000e+001  1.250000e+001
      vertex  3.000000e+000  1.007769e+001  1.193932e+001
      vertex  3.000000e+000  1.121914e+001  1.181637e+001
    endloop
  endfacet
  facet normal  1.000000e+000  -0.000000e+000  0.000000e+000
    outer loop
      vertex  3.000000e+000  1.250000e+001  1.250000e+001
      vertex  3.000000e+000  1.121914e+001  1.181637e+001
      vertex  3.000000e+000  1.193932e+001  1.092231e+001
    endloop
  endfacet
  facet normal  1.000000e+000  -0.000000e+000  0.000000e+000
    outer loop
      vertex  3.000000e+000  1.250000e+001  1.250000e+001
      vertex  3.000000e+000  1.193932e+001  1.092231e+001
      vertex  3.000000e+000  1.181637e+001  9.780862e+000
    endloop
  endfacet
  facet normal  1.000000e+000  -0.000000e+000  0.000000e+000
    outer loop
      vertex  3.000000e+000  1.250000e+001  1.250000e+001
      vertex  3.000000e+000  1.181637e+001  9.780862e+000
      vertex  3.000000e+000  1.250000e+001 -1.250000e+001
    endloop
  endfacet
  facet normal  1.000000e+000  0.000000e+000  0.000000e+000
    outer loop
      vertex  3.000000e+000  1.250000e+001 -1.250000e+001
      vertex  3.000000e+000  1.181637e+001  9.780862e+000
      vertex  3.000000e+000  1.193932e+001 -2.077691e+000
    endloop
  endfacet
  facet normal  1.000000e+000  0.000000e+000  0.000000e+000
    outer loop
      vertex  3.000000e+000  1.250000e+001 -1.250000e+001
      vertex  3.000000e+000  1.193932e+001 -2.077691e+000
      vertex  3.000000e+000  1.181637e+001 -3.219138e+000
    endloop
  endfacet
  facet normal  1.000000e+000  0.000000e+000  0.000000e+000
    outer loop
      vertex  3.000000e+000  1.250000e+001 -1.250000e+001
      vertex  3.000000e+000  1.181637e+001 -3.219138e+000
      vertex  3.000000e+000  1.092231e+001 -3.939324e+000
    endloop
  endfacet
  facet normal  1.000000e+000  0.000000e+000  0.000000e+000
    outer loop
      vertex  3.000000e+000 -1.250000e+001 -1.250000e+001
      vertex  3.000000e+000 -9.183626e+000 -3.219138e+000
      vertex  3.000000e+000 -1.007769e+001 -3.939324e+000
    endloop
  endfacet
  facet normal  1.000000e+000  0.000000e+000  0.000000e+000
    outer loop
      vertex  3.000000e+000 -1.250000e+001 -1.250000e+001
      vertex  3.000000e+000 -1.007769e+001 -3.939324e+000
      vertex  3.000000e+000 -1.121914e+001 -3.816374e+000
    endloop
  endfacet
  facet normal  1.000000e+000  0.000000e+000  0.000000e+000
    outer loop
      vertex  3.000000e+000 -1.250000e+001 -1.250000e+001
      vertex  3.000000e+000 -1.121914e+001 -3.816374e+000
      vertex  3.000000e+000 -1.193932e+001 -2.922309e+000
    endloop
  endfacet
  facet normal  9.999999e-001  0.000000e+000  -0.000000e+000
    outer loop
      vertex  3.000000e+000 -1.250000e+001 -1.250000e+001
      vertex  3.000000e+000 -1.193932e+001 -2.922309e+000
      vertex  3.000000e+000 -1.193932e+001  1.007769e+001
    endloop
  endfacet
  facet normal  1.000000e+000  0.000000e+000  0.000000e+000
    outer loop
      vertex  3.000000e+000 -1.250000e+001 -1.250000e+001
      vertex  3.000000e+000  1.250000e+001 -1.250000e+001
      vertex  3.000000e+000  1.092231e+001 -3.939324e+000
    endloop
  endfacet
  facet normal  1.000000e+000  0.000000e+000  0.000000e+000
    outer loop
      vertex  3.000000e+000 -1.250000e+001 -1.250000e+001
      vertex  3.000000e+000  1.092231e+001 -3.939324e+000
      vertex  3.000000e+000  9.780862e+000 -3.816374e+000
    endloop
  endfacet
  facet normal  9.999999e-001  0.000000e+000  0.000000e+000
    outer loop
      vertex  3.000000e+000 -1.250000e+001 -1.250000e+001
      vertex  3.000000e+000  9.780862e+000 -3.816374e+000
      vertex  3.000000e+000  9.060676e+000 -2.922309e+000
    endloop
  endfacet
  facet normal  1.000000e+000  0.000000e+000  0.000000e+000
    outer loop
      vertex  3.000000e+000 -1.250000e+001  1.250000e+001
      vertex  3.000000e+000 -1.250000e+001 -1.250000e+001
      vertex  3.000000e+000 -1.193932e+001  1.007769e+001
    endloop
  endfacet
  facet normal  1.000000e+000  0.000000e+000  -0.000000e+000
    outer loop
      vertex  3.000000e+000 -1.250000e+001  1.250000e+001
      vertex  3.000000e+000 -1.193932e+001  1.007769e+001
      vertex  3.000000e+000 -1.181637e+001  1.121914e+001
    endloop
  endfacet
  facet normal  1.000000e+000  0.000000e+000  -0.000000e+000
    outer loop
      vertex  3.000000e+000 -1.250000e+001  1.250000e+001
      vertex  3.000000e+000 -1.181637e+001  1.121914e+001
      vertex  3.000000e+000 -1.092231e+001  1.193932e+001
    endloop
  endfacet
  facet normal  1.000000e+000  -0.000000e+000  -0.000000e+000
    outer loop
      vertex  3.000000e+000 -1.250000e+001  1.250000e+001
      vertex  3.000000e+000 -1.092231e+001  1.193932e+001
      vertex  3.000000e+000 -9.780862e+000  1.181637e+001
    endloop
  endfacet
  facet normal  1.000000e+000  -0.000000e+000  -0.000000e+000
    outer loop
      vertex  3.000000e+000 -1.250000e+001  1.250000e+001
      vertex  3.000000e+000 -9.780862e+000  1.181637e+001
      vertex  3.000000e+000 -7.500000e+000  1.150000e+001
    endloop
  endfacet
  facet normal  1.000000e+000  0.000000e+000  -0.000000e+000
    outer loop
      vertex  3.000000e+000 -1.250000e+001  1.250000e+001
      vertex  3.000000e+000 -7.500000e+000  1.150000e+001
      vertex  3.000000e+000  7.500000e+000  1.150000e+001
    endloop
  endfacet
  facet normal  9.999999e-001  0.000000e+000  -0.000000e+000
    outer loop
      vertex  3.000000e+000 -1.250000e+001  1.250000e+001
      vertex  3.000000e+000  7.500000e+000  1.150000e+001
      vertex  3.000000e+000  1.007769e+001  1.193932e+001
    endloop
  endfacet
  facet normal  1.000000e+000  0.000000e+000  0.000000e+000
    outer loop
      vertex  3.000000e+000  1.193932e+001 -2.077691e+000
      vertex  3.000000e+000  1.181637e+001  9.780862e+000
      vertex  3.000000e+000  1.121914e+001 -1.183626e+000
    endloop
  endfacet
  facet normal  1.000000e+000  0.000000e+000  -0.000000e+000
    outer loop
      vertex  3.000000e+000  1.121914e+001 -1.183626e+000
      vertex  3.000000e+000  1.181637e+001  9.780862e+000
      vertex  3.000000e+000  1.092231e+001  9.060676e+000
    endloop
  endfacet
  facet normal  1.000000e+000  0.000000e+000  0.000000e+000
    outer loop
      vertex  3.000000e+000  1.121914e+001 -1.183626e+000
      vertex  3.000000e+000  1.092231e+001  9.060676e+000
      vertex  3.000000e+000  1.007769e+001 -1.060676e+000
    endloop
  endfacet
  facet normal  1.000000e+000  0.000000e+000  -0.000000e+000
    outer loop
      vertex  3.000000e+000  1.007769e+001 -1.060676e+000
      vertex  3.000000e+000  1.092231e+001  9.060676e+000
      vertex  3.000000e+000  9.780862e+000  9.183626e+000
    endloop
  endfacet
  facet normal  1.000000e+000  0.000000e+000  0.000000e+000
    outer loop
      vertex  3.000000e+000  1.007769e+001 -1.060676e+000
      vertex  3.000000e+000  9.780862e+000  9.183626e+000
      vertex  3.000000e+000  9.183626e+000 -1.780862e+000
    endloop
  endfacet
  facet normal  1.000000e+000  0.000000e+000  0.000000e+000
    outer loop
      vertex  3.000000e+000  9.183626e+000 -1.780862e+000
      vertex  3.000000e+000  9.780862e+000  9.183626e+000
      vertex  3.000000e+000  9.060676e+000 -2.922309e+000
    endloop
  endfacet
  facet normal  1.000000e+000  0.000000e+000  -0.000000e+000
    outer loop
      vertex  3.000000e+000  9.060676e+000 -2.922309e+000
      vertex  3.000000e+000  9.780862e+000  9.183626e+000
      vertex  3.000000e+000  7.500000e+000  9.500000e+000
    endloop
  endfacet
  facet normal  1.000000e+000  0.000000e+000  0.000000e+000
    outer loop
      vertex  3.000000e+000  9.060676e+000 -2.922309e+000
      vertex  3.000000e+000  7.500000e+000  9.500000e+000
      vertex  3.000000e+000 -1.250000e+001 -1.250000e+001
    endloop
  endfacet
  facet normal  1.000000e+000  0.000000e+000  0.000000e+000
    outer loop
      vertex  3.000000e+000 -1.250000e+001 -1.250000e+001
      vertex  3.000000e+000  7.500000e+000  9.500000e+000
      vertex  3.000000e+000 -9.183626e+000 -3.219138e+000
    endloop
  endfacet
  facet normal  1.000000e+000  0.000000e+000  0.000000e+000
    outer loop
      vertex  3.000000e+000 -9.780862e+000 -1.183626e+000
      vertex  3.000000e+000 -1.007769e+001  9.060676e+000
      vertex  3.000000e+000 -1.092231e+001 -1.060676e+000
    endloop
  endfacet
  facet normal  1.000000e+000  0.000000e+000  -0.000000e+000
    outer loop
      vertex  3.000000e+000 -1.092231e+001 -1.060676e+000
      vertex  3.000000e+000 -1.007769e+001  9.060676e+000
      vertex  3.000000e+000 -1.121914e+001  9.183626e+000
    endloop
  endfacet
  facet normal  1.000000e+000  0.000000e+000  0.000000e+000
    outer loop
      vertex  3.000000e+000 -1.092231e+001 -1.060676e+000
      vertex  3.000000e+000 -1.121914e+001  9.183626e+000
      vertex  3.000000e+000 -1.181637e+001 -1.780862e+000
    endloop
  endfacet
  facet normal  1.000000e+000  0.000000e+000  0.000000e+000
    outer loop
      vertex  3.000000e+000 -1.181637e+001 -1.780862e+000
      vertex  3.000000e+000 -1.121914e+001  9.183626e+000
      vertex  3.000000e+000 -1.193932e+001 -2.922309e+000
    endloop
  endfacet
  facet normal  1.000000e+000  0.000000e+000  0.000000e+000
    outer loop
      vertex  3.000000e+000 -1.193932e+001 -2.922309e+000
      vertex  3.000000e+000 -1.121914e+001  9.183626e+000
      vertex  3.000000e+000 -1.193932e+001  1.007769e+001
    endloop
  endfacet
  facet normal  1.000000e+000  0.000000e+000  0.000000e+000
    outer loop
      vertex  3.000000e+000  7.500000e+000  9.500000e+000
      vertex  3.000000e+000  9.060676e+000  1.007769e+001
      vertex  3.000000e+000  7.500000e+000  1.150000e+001
    endloop
  endfacet
  facet normal  9.999999e-001  0.000000e+000  0.000000e+000
    outer loop
      vertex  3.000000e+000  7.500000e+000  1.150000e+001
      vertex  3.000000e+000  9.060676e+000  1.007769e+001
      vertex  3.000000e+000  9.183626e+000  1.121914e+001
    endloop
  endfacet
  facet normal  1.000000e+000  0.000000e+000  -0.000000e+000
    outer loop
      vertex  3.000000e+000  7.500000e+000  1.150000e+001
      vertex  3.000000e+000  9.183626e+000  1.121914e+001
      vertex  3.000000e+000  1.007769e+001  1.193932e+001
    endloop
  endfacet
  facet normal  0.000000e+000  1.000000e+000  0.000000e+000
    outer loop
      vertex  3.000000e+000  7.500000e+000  1.150000e+001
      vertex  5.500000e+000  7.500000e+000  1.150000e+001
      vertex  3.000000e+000  7.500000e+000  9.500000e+000
    endloop
  endfacet
  facet normal  0.000000e+000  1.000000e+000  0.000000e+000
    outer loop
      vertex  3.000000e+000  7.500000e+000  9.500000e+000
      vertex  5.500000e+000  7.500000e+000  1.150000e+001
      vertex  5.500000e+000  7.500000e+000  9.500000e+000
    endloop
  endfacet
  facet normal  0.000000e+000  0.000000e+000 -1.000000e+000
    outer loop
      vertex  5.500000e+000  7.500000e+000  9.500000e+000
      vertex  5.500000e+000 -7.500000e+000  9.500000e+000
      vertex  3.000000e+000  7.500000e+000  9.500000e+000
    endloop
  endfacet
  facet normal  0.000000e+000  0.000000e+000 -1.000000e+000
    outer loop
      vertex  3.000000e+000  7.500000e+000  9.500000e+000
      vertex  5.500000e+000 -7.500000e+000  9.500000e+000
      vertex  3.000000e+000 -7.500000e+000  9.500000e+000
    endloop
  endfacet
  facet normal  0.000000e+000 -1.000000e+000  0.000000e+000
    outer loop
      vertex  3.000000e+000 -7.500000e+000  9.500000e+000
      vertex  5.500000e+000 -7.500000e+000  9.500000e+000
      vertex  3.000000e+000 -7.500000e+000  1.150000e+001
    endloop
  endfacet
  facet normal  0.000000e+000 -1.000000e+000  0.000000e+000
    outer loop
      vertex  3.000000e+000 -7.500000e+000  1.150000e+001
      vertex  5.500000e+000 -7.500000e+000  9.500000e+000
      vertex  5.500000e+000 -7.500000e+000  1.150000e+001
    endloop
  endfacet
  facet normal  0.000000e+000  0.000000e+000  1.000000e+000
    outer loop
      vertex  5.500000e+000 -7.500000e+000  1.150000e+001
      vertex  5.500000e+000  7.500000e+000  1.150000e+001
      vertex  3.000000e+000 -7.500000e+000  1.150000e+001
    endloop
  endfacet
  facet normal  0.000000e+000  0.000000e+000  1.000000e+000
    outer loop
      vertex  3.000000e+000 -7.500000e+000  1.150000e+001
      vertex  5.500000e+000  7.500000e+000  1.150000e+001
      vertex  3.000000e+000  7.500000e+000  1.150000e+001
    endloop
  endfacet
  facet normal  1.000000e+000  0.000000e+000  0.000000e+000
    outer loop
      vertex  5.500000e+000 -7.500000e+000  9.500000e+000
      vertex  5.500000e+000  7.500000e+000  9.500000e+000
      vertex  5.500000e+000 -7.500000e+000  1.150000e+001
    endloop
  endfacet
  facet normal  1.000000e+000  -0.000000e+000  0.000000e+000
    outer loop
      vertex  5.500000e+000 -7.500000e+000  1.150000e+001
      vertex  5.500000e+000  7.500000e+000  9.500000e+000
      vertex  5.500000e+000  7.500000e+000  1.150000e+001
    endloop
  endfacet
  facet normal -1.000000e+000  6.496083e-016  0.000000e+000
    outer loop
      vertex  0.000000e+000  1.250000e+001  1.250000e+001
      vertex  0.000000e+000  1.250000e+001 -1.250000e+001
      vertex -4.440892e-016  1.181637e+001  9.780862e+000
    endloop
  endfacet
  facet normal -1.000000e+000 -1.570919e-015  5.582691e-016
    outer loop
      vertex  0.000000e+000  1.250000e+001  1.250000e+001
      vertex -4.440892e-016  1.181637e+001  9.780862e+000
      vertex  0.000000e+000  1.193932e+001  1.092231e+001
    endloop
  endfacet
  facet normal -1.000000e+000  0.000000e+000  0.000000e+000
    outer loop
      vertex  0.000000e+000  1.250000e+001  1.250000e+001
      vertex  0.000000e+000  1.193932e+001  1.092231e+001
      vertex  0.000000e+000  1.121914e+001  1.181637e+001
    endloop
  endfacet
  facet normal -1.000000e+000  0.000000e+000  0.000000e+000
    outer loop
      vertex  0.000000e+000  1.250000e+001  1.250000e+001
      vertex  0.000000e+000  1.121914e+001  1.181637e+001
      vertex  0.000000e+000  1.007769e+001  1.193932e+001
    endloop
  endfacet
  facet normal -1.000000e+000  0.000000e+000  0.000000e+000
    outer loop
      vertex  0.000000e+000  1.250000e+001  1.250000e+001
      vertex  0.000000e+000  1.007769e+001  1.193932e+001
      vertex  0.000000e+000 -1.250000e+001  1.250000e+001
    endloop
  endfacet
  facet normal -1.000000e+000  0.000000e+000  0.000000e+000
    outer loop
      vertex  0.000000e+000  1.250000e+001 -1.250000e+001
      vertex  0.000000e+000 -1.250000e+001 -1.250000e+001
      vertex  0.000000e+000  1.092231e+001 -3.939324e+000
    endloop
  endfacet
  facet normal -1.000000e+000  0.000000e+000  0.000000e+000
    outer loop
      vertex  0.000000e+000  1.250000e+001 -1.250000e+001
      vertex  0.000000e+000  1.092231e+001 -3.939324e+000
      vertex  0.000000e+000  1.181637e+001 -3.219138e+000
    endloop
  endfacet
  facet normal -1.000000e+000  0.000000e+000  0.000000e+000
    outer loop
      vertex  0.000000e+000  1.250000e+001 -1.250000e+001
      vertex  0.000000e+000  1.181637e+001 -3.219138e+000
      vertex  0.000000e+000  1.193932e+001 -2.077691e+000
    endloop
  endfacet
  facet normal -1.000000e+000 -8.623279e-016 -4.638955e-017
    outer loop
      vertex  0.000000e+000  1.250000e+001 -1.250000e+001
      vertex  0.000000e+000  1.193932e+001 -2.077691e+000
      vertex -4.440892e-016  1.181637e+001  9.780862e+000
    endloop
  endfacet
  facet normal -9.999999e-001  0.000000e+000  -0.000000e+000
    outer loop
      vertex  0.000000e+000 -1.250000e+001 -1.250000e+001
      vertex  0.000000e+000 -1.193932e+001  1.007769e+001
      vertex  0.000000e+000 -1.193932e+001 -2.922309e+000
    endloop
  endfacet
  facet normal -9.999999e-001  0.000000e+000  -0.000000e+000
    outer loop
      vertex  0.000000e+000 -1.250000e+001 -1.250000e+001
      vertex  0.000000e+000 -1.193932e+001 -2.922309e+000
      vertex  0.000000e+000 -1.121914e+001 -3.816374e+000
    endloop
  endfacet
  facet normal -1.000000e+000  0.000000e+000  -0.000000e+000
    outer loop
      vertex  0.000000e+000 -1.250000e+001 -1.250000e+001
      vertex  0.000000e+000 -1.121914e+001 -3.816374e+000
      vertex  0.000000e+000 -1.007769e+001 -3.939324e+000
    endloop
  endfacet
  facet normal -1.000000e+000  0.000000e+000  -0.000000e+000
    outer loop
      vertex  0.000000e+000 -1.250000e+001 -1.250000e+001
      vertex  0.000000e+000 -1.007769e+001 -3.939324e+000
      vertex  0.000000e+000  9.780862e+000 -3.816374e+000
    endloop
  endfacet
  facet normal -9.999999e-001  0.000000e+000  -0.000000e+000
    outer loop
      vertex  0.000000e+000 -1.250000e+001 -1.250000e+001
      vertex  0.000000e+000  9.780862e+000 -3.816374e+000
      vertex  0.000000e+000  1.092231e+001 -3.939324e+000
    endloop
  endfacet
  facet normal -1.000000e+000  1.485494e-017  5.981896e-016
    outer loop
      vertex  0.000000e+000 -1.250000e+001  1.250000e+001
      vertex  0.000000e+000  1.007769e+001  1.193932e+001
      vertex -4.440892e-016  9.183626e+000  1.121914e+001
    endloop
  endfacet
  facet normal -1.000000e+000 -2.677015e-017 -1.064788e-016
    outer loop
      vertex  0.000000e+000 -1.250000e+001  1.250000e+001
      vertex -4.440892e-016  9.183626e+000  1.121914e+001
      vertex  0.000000e+000 -9.780862e+000  1.181637e+001
    endloop
  endfacet
  facet normal -1.000000e+000  0.000000e+000  0.000000e+000
    outer loop
      vertex  0.000000e+000 -1.250000e+001  1.250000e+001
      vertex  0.000000e+000 -9.780862e+000  1.181637e+001
      vertex  0.000000e+000 -1.092231e+001  1.193932e+001
    endloop
  endfacet
  facet normal -1.000000e+000  1.520539e-016  4.278660e-016
    outer loop
      vertex  0.000000e+000 -1.250000e+001  1.250000e+001
      vertex  0.000000e+000 -1.092231e+001  1.193932e+001
      vertex -4.440892e-016 -1.181637e+001  1.121914e+001
    endloop
  endfacet
  facet normal -1.000000e+000 -1.147062e-015 -2.655027e-016
    outer loop
      vertex  0.000000e+000 -1.250000e+001  1.250000e+001
      vertex -4.440892e-016 -1.181637e+001  1.121914e+001
      vertex  0.000000e+000 -1.193932e+001  1.007769e+001
    endloop
  endfacet
  facet normal -1.000000e+000  -0.000000e+000  0.000000e+000
    outer loop
      vertex  0.000000e+000 -1.250000e+001  1.250000e+001
      vertex  0.000000e+000 -1.193932e+001  1.007769e+001
      vertex  0.000000e+000 -1.250000e+001 -1.250000e+001
    endloop
  endfacet
  facet normal -1.000000e+000  0.000000e+000  -0.000000e+000
    outer loop
      vertex  0.000000e+000 -1.007769e+001  9.060676e+000
      vertex  0.000000e+000  9.780862e+000  9.183626e+000
      vertex  0.000000e+000  1.007769e+001 -1.060676e+000
    endloop
  endfacet
  facet normal -1.000000e+000  0.000000e+000  0.000000e+000
    outer loop
      vertex  0.000000e+000  1.007769e+001 -1.060676e+000
      vertex  0.000000e+000  9.780862e+000  9.183626e+000
      vertex  0.000000e+000  1.092231e+001  9.060676e+000
    endloop
  endfacet
  facet normal -1.000000e+000  0.000000e+000  -0.000000e+000
    outer loop
      vertex  0.000000e+000  1.007769e+001 -1.060676e+000
      vertex  0.000000e+000  1.092231e+001  9.060676e+000
      vertex  0.000000e+000  1.121914e+001 -1.183626e+000
    endloop
  endfacet
  facet normal -1.000000e+000 -4.853793e-016 -1.406389e-017
    outer loop
      vertex  0.000000e+000  1.121914e+001 -1.183626e+000
      vertex  0.000000e+000  1.092231e+001  9.060676e+000
      vertex -4.440892e-016  1.181637e+001  9.780862e+000
    endloop
  endfacet
  facet normal -1.000000e+000 -4.709654e-017 -3.793715e-017
    outer loop
      vertex  0.000000e+000  1.121914e+001 -1.183626e+000
      vertex -4.440892e-016  1.181637e+001  9.780862e+000
      vertex  0.000000e+000  1.193932e+001 -2.077691e+000
    endloop
  endfacet
  facet normal -1.000000e+000  0.000000e+000  -0.000000e+000
    outer loop
      vertex  0.000000e+000 -1.181637e+001 -1.780862e+000
      vertex  0.000000e+000 -1.121914e+001  9.183626e+000
      vertex  0.000000e+000 -1.092231e+001 -1.060676e+000
    endloop
  endfacet
  facet normal -1.000000e+000  0.000000e+000  0.000000e+000
    outer loop
      vertex  0.000000e+000 -1.092231e+001 -1.060676e+000
      vertex  0.000000e+000 -1.121914e+001  9.183626e+000
      vertex  0.000000e+000 -1.007769e+001  9.060676e+000
    endloop
  endfacet
  facet normal -1.000000e+000  0.000000e+000  -0.000000e+000
    outer loop
      vertex  0.000000e+000 -1.092231e+001 -1.060676e+000
      vertex  0.000000e+000 -1.007769e+001  9.060676e+000
      vertex  0.000000e+000 -9.780862e+000 -1.183626e+000
    endloop
  endfacet
  facet normal -1.000000e+000  0.000000e+000  0.000000e+000
    outer loop
      vertex  0.000000e+000 -9.780862e+000 -1.183626e+000
      vertex  0.000000e+000 -1.007769e+001  9.060676e+000
      vertex  0.000000e+000  1.007769e+001 -1.060676e+000
    endloop
  endfacet
  facet normal -1.000000e+000  0.000000e+000  0.000000e+000
    outer loop
      vertex  0.000000e+000 -9.780862e+000 -1.183626e+000
      vertex  0.000000e+000  1.007769e+001 -1.060676e+000
      vertex  0.000000e+000  9.183626e+000 -1.780862e+000
    endloop
  endfacet
  facet normal -1.000000e+000  0.000000e+000  0.000000e+000
    outer loop
      vertex  0.000000e+000 -1.181637e+001 -1.780862e+000
      vertex  0.000000e+000 -1.193932e+001 -2.922309e+000
      vertex  0.000000e+000 -1.121914e+001  9.183626e+000
    endloop
  endfacet
  facet normal -1.000000e+000  -0.000000e+000  0.000000e+000
    outer loop
      vertex  0.000000e+000 -1.121914e+001  9.183626e+000
      vertex  0.000000e+000 -1.193932e+001 -2.922309e+000
      vertex  0.000000e+000 -1.193932e+001  1.007769e+001
    endloop
  endfacet
  facet normal -1.000000e+000 -2.402638e-017 -1.935375e-017
    outer loop
      vertex  0.000000e+000 -9.780862e+000  1.181637e+001
      vertex -4.440892e-016  9.183626e+000  1.121914e+001
      vertex  0.000000e+000 -9.060676e+000  1.092231e+001
    endloop
  endfacet
  facet normal -1.000000e+000 -1.804302e-017 -3.871146e-016
    outer loop
      vertex  0.000000e+000 -9.060676e+000  1.092231e+001
      vertex -4.440892e-016  9.183626e+000  1.121914e+001
      vertex  0.000000e+000  9.060676e+000  1.007769e+001
    endloop
  endfacet
  facet normal -1.000000e+000  1.804302e-017  3.871146e-016
    outer loop
      vertex  0.000000e+000 -9.060676e+000  1.092231e+001
      vertex  0.000000e+000  9.060676e+000  1.007769e+001
      vertex -4.440892e-016 -9.183626e+000  9.780862e+000
    endloop
  endfacet
  facet normal -1.000000e+000  2.402638e-017  1.935375e-017
    outer loop
      vertex -4.440892e-016 -9.183626e+000  9.780862e+000
      vertex  0.000000e+000  9.060676e+000  1.007769e+001
      vertex  0.000000e+000  9.780862e+000  9.183626e+000
    endloop
  endfacet
  facet normal -1.000000e+000  3.847328e-018 -6.214073e-016
    outer loop
      vertex -4.440892e-016 -9.183626e+000  9.780862e+000
      vertex  0.000000e+000  9.780862e+000  9.183626e+000
      vertex  0.000000e+000 -1.007769e+001  9.060676e+000
    endloop
  endfacet
  facet normal -1.000000e+000  -0.000000e+000  0.000000e+000
    outer loop
      vertex  0.000000e+000 -9.780862e+000 -1.183626e+000
      vertex  0.000000e+000  9.183626e+000 -1.780862e+000
      vertex  0.000000e+000 -9.060676e+000 -2.077691e+000
    endloop
  endfacet
  facet normal -1.000000e+000  0.000000e+000  0.000000e+000
    outer loop
      vertex  0.000000e+000 -9.060676e+000 -2.077691e+000
      vertex  0.000000e+000  9.183626e+000 -1.780862e+000
      vertex  0.000000e+000  9.060676e+000 -2.922309e+000
    endloop
  endfacet
  facet normal -1.000000e+000  -0.000000e+000  0.000000e+000
    outer loop
      vertex  0.000000e+000 -9.060676e+000 -2.077691e+000
      vertex  0.000000e+000  9.060676e+000 -2.922309e+000
      vertex  0.000000e+000 -9.183626e+000 -3.219138e+000
    endloop
  endfacet
  facet normal -1.000000e+000  0.000000e+000  0.000000e+000
    outer loop
      vertex  0.000000e+000 -9.183626e+000 -3.219138e+000
      vertex  0.000000e+000  9.060676e+000 -2.922309e+000
      vertex  0.000000e+000  9.780862e+000 -3.816374e+000
    endloop
  endfacet
  facet normal -1.000000e+000  -0.000000e+000  0.000000e+000
    outer loop
      vertex  0.000000e+000 -9.183626e+000 -3.219138e+000
      vertex  0.000000e+000  9.780862e+000 -3.816374e+000
      vertex  0.000000e+000 -1.007769e+001 -3.939324e+000
    endloop
  endfacet
  facet normal  -0.000000e+000  7.787676e-001  6.273124e-001
    outer loop
      vertex  3.000000e+000 -1.121914e+001 -3.816374e+000
      vertex  0.000000e+000 -1.193932e+001 -2.922309e+000
      vertex  3.000000e+000 -1.193932e+001 -2.922309e+000
    endloop
  endfacet
  facet normal  0.000000e+000  9.942488e-001 -1.070951e-001
    outer loop
      vertex  3.000000e+000 -1.193932e+001 -2.922309e+000
      vertex  0.000000e+000 -1.193932e+001 -2.922309e+000
      vertex  0.000000e+000 -1.181637e+001 -1.780862e+000
    endloop
  endfacet
  facet normal  0.000000e+000  9.942488e-001 -1.070951e-001
    outer loop
      vertex  3.000000e+000 -1.193932e+001 -2.922309e+000
      vertex  0.000000e+000 -1.181637e+001 -1.780862e+000
      vertex  3.000000e+000 -1.181637e+001 -1.780862e+000
    endloop
  endfacet
  facet normal  0.000000e+000  7.787676e-001  6.273124e-001
    outer loop
      vertex  0.000000e+000 -1.193932e+001 -2.922309e+000
      vertex  3.000000e+000 -1.121914e+001 -3.816374e+000
      vertex  0.000000e+000 -1.121914e+001 -3.816374e+000
    endloop
  endfacet
  facet normal  -0.000000e+000  1.070951e-001  9.942487e-001
    outer loop
      vertex  0.000000e+000 -1.121914e+001 -3.816374e+000
      vertex  3.000000e+000 -1.121914e+001 -3.816374e+000
      vertex  3.000000e+000 -1.007769e+001 -3.939324e+000
    endloop
  endfacet
  facet normal  0.000000e+000  1.070951e-001  9.942487e-001
    outer loop
      vertex  0.000000e+000 -1.121914e+001 -3.816374e+000
      vertex  3.000000e+000 -1.007769e+001 -3.939324e+000
      vertex  0.000000e+000 -1.007769e+001 -3.939324e+000
    endloop
  endfacet
  facet normal  0.000000e+000 -6.273121e-001  7.787679e-001
    outer loop
      vertex  0.000000e+000 -1.007769e+001 -3.939324e+000
      vertex  3.000000e+000 -1.007769e+001 -3.939324e+000
      vertex  3.000000e+000 -9.183626e+000 -3.219138e+000
    endloop
  endfacet
  facet normal  0.000000e+000 -6.273121e-001  7.787679e-001
    outer loop
      vertex  0.000000e+000 -1.007769e+001 -3.939324e+000
      vertex  3.000000e+000 -9.183626e+000 -3.219138e+000
      vertex  0.000000e+000 -9.183626e+000 -3.219138e+000
    endloop
  endfacet
  facet normal  0.000000e+000 -7.787676e-001 -6.273124e-001
    outer loop
      vertex  3.000000e+000 -9.780862e+000 -1.183626e+000
      vertex  0.000000e+000 -9.060676e+000 -2.077691e+000
      vertex  3.000000e+000 -9.060676e+000 -2.077691e+000
    endloop
  endfacet
  facet normal  0.000000e+000 -9.942487e-001  1.070951e-001
    outer loop
      vertex  3.000000e+000 -9.060676e+000 -2.077691e+000
      vertex  0.000000e+000 -9.060676e+000 -2.077691e+000
      vertex  0.000000e+000 -9.183626e+000 -3.219138e+000
    endloop
  endfacet
  facet normal  0.000000e+000 -9.942487e-001  1.070951e-001
    outer loop
      vertex  3.000000e+000 -9.060676e+000 -2.077691e+000
      vertex  0.000000e+000 -9.183626e+000 -3.219138e+000
      vertex  3.000000e+000 -9.183626e+000 -3.219138e+000
    endloop
  endfacet
  facet normal  -0.000000e+000 -7.787676e-001 -6.273124e-001
    outer loop
      vertex  0.000000e+000 -9.060676e+000 -2.077691e+000
      vertex  3.000000e+000 -9.780862e+000 -1.183626e+000
      vertex  0.000000e+000 -9.780862e+000 -1.183626e+000
    endloop
  endfacet
  facet normal  0.000000e+000 -1.070952e-001 -9.942487e-001
    outer loop
      vertex  0.000000e+000 -9.780862e+000 -1.183626e+000
      vertex  3.000000e+000 -9.780862e+000 -1.183626e+000
      vertex  3.000000e+000 -1.092231e+001 -1.060676e+000
    endloop
  endfacet
  facet normal  -0.000000e+000 -1.070952e-001 -9.942487e-001
    outer loop
      vertex  0.000000e+000 -9.780862e+000 -1.183626e+000
      vertex  3.000000e+000 -1.092231e+001 -1.060676e+000
      vertex  0.000000e+000 -1.092231e+001 -1.060676e+000
    endloop
  endfacet
  facet normal  0.000000e+000  6.273123e-001 -7.787678e-001
    outer loop
      vertex  0.000000e+000 -1.092231e+001 -1.060676e+000
      vertex  3.000000e+000 -1.092231e+001 -1.060676e+000
      vertex  3.000000e+000 -1.181637e+001 -1.780862e+000
    endloop
  endfacet
  facet normal  0.000000e+000  6.273123e-001 -7.787678e-001
    outer loop
      vertex  0.000000e+000 -1.092231e+001 -1.060676e+000
      vertex  3.000000e+000 -1.181637e+001 -1.780862e+000
      vertex  0.000000e+000 -1.181637e+001 -1.780862e+000
    endloop
  endfacet
  facet normal  -0.000000e+000  7.787676e-001  6.273124e-001
    outer loop
      vertex  3.000000e+000  9.780862e+000 -3.816374e+000
      vertex  0.000000e+000  9.060676e+000 -2.922309e+000
      vertex  3.000000e+000  9.060676e+000 -2.922309e+000
    endloop
  endfacet
  facet normal  0.000000e+000  9.942488e-001 -1.070951e-001
    outer loop
      vertex  3.000000e+000  9.060676e+000 -2.922309e+000
      vertex  0.000000e+000  9.060676e+000 -2.922309e+000
      vertex  0.000000e+000  9.183626e+000 -1.780862e+000
    endloop
  endfacet
  facet normal  0.000000e+000  9.942488e-001 -1.070951e-001
    outer loop
      vertex  3.000000e+000  9.060676e+000 -2.922309e+000
      vertex  0.000000e+000  9.183626e+000 -1.780862e+000
      vertex  3.000000e+000  9.183626e+000 -1.780862e+000
    endloop
  endfacet
  facet normal  0.000000e+000  7.787676e-001  6.273124e-001
    outer loop
      vertex  0.000000e+000  9.060676e+000 -2.922309e+000
      vertex  3.000000e+000  9.780862e+000 -3.816374e+000
      vertex  0.000000e+000  9.780862e+000 -3.816374e+000
    endloop
  endfacet
  facet normal  -0.000000e+000  1.070951e-001  9.942487e-001
    outer loop
      vertex  0.000000e+000  9.780862e+000 -3.816374e+000
      vertex  3.000000e+000  9.780862e+000 -3.816374e+000
      vertex  3.000000e+000  1.092231e+001 -3.939324e+000
    endloop
  endfacet
  facet normal  0.000000e+000  1.070951e-001  9.942487e-001
    outer loop
      vertex  0.000000e+000  9.780862e+000 -3.816374e+000
      vertex  3.000000e+000  1.092231e+001 -3.939324e+000
      vertex  0.000000e+000  1.092231e+001 -3.939324e+000
    endloop
  endfacet
  facet normal  0.000000e+000 -6.273121e-001  7.787679e-001
    outer loop
      vertex  0.000000e+000  1.092231e+001 -3.939324e+000
      vertex  3.000000e+000  1.092231e+001 -3.939324e+000
      vertex  3.000000e+000  1.181637e+001 -3.219138e+000
    endloop
  endfacet
  facet normal  0.000000e+000 -6.273121e-001  7.787679e-001
    outer loop
      vertex  0.000000e+000  1.092231e+001 -3.939324e+000
      vertex  3.000000e+000  1.181637e+001 -3.219138e+000
      vertex  0.000000e+000  1.181637e+001 -3.219138e+000
    endloop
  endfacet
  facet normal  0.000000e+000 -7.787676e-001 -6.273124e-001
    outer loop
      vertex  3.000000e+000  1.121914e+001 -1.183626e+000
      vertex  0.000000e+000  1.193932e+001 -2.077691e+000
      vertex  3.000000e+000  1.193932e+001 -2.077691e+000
    endloop
  endfacet
  facet normal  0.000000e+000 -9.942487e-001  1.070951e-001
    outer loop
      vertex  3.000000e+000  1.193932e+001 -2.077691e+000
      vertex  0.000000e+000  1.193932e+001 -2.077691e+000
      vertex  0.000000e+000  1.181637e+001 -3.219138e+000
    endloop
  endfacet
  facet normal  0.000000e+000 -9.942487e-001  1.070951e-001
    outer loop
      vertex  3.000000e+000  1.193932e+001 -2.077691e+000
      vertex  0.000000e+000  1.181637e+001 -3.219138e+000
      vertex  3.000000e+000  1.181637e+001 -3.219138e+000
    endloop
  endfacet
  facet normal  -0.000000e+000 -7.787676e-001 -6.273124e-001
    outer loop
      vertex  0.000000e+000  1.193932e+001 -2.077691e+000
      vertex  3.000000e+000  1.121914e+001 -1.183626e+000
      vertex  0.000000e+000  1.121914e+001 -1.183626e+000
    endloop
  endfacet
  facet normal  0.000000e+000 -1.070952e-001 -9.942487e-001
    outer loop
      vertex  0.000000e+000  1.121914e+001 -1.183626e+000
      vertex  3.000000e+000  1.121914e+001 -1.183626e+000
      vertex  3.000000e+000  1.007769e+001 -1.060676e+000
    endloop
  endfacet
  facet normal  -0.000000e+000 -1.070952e-001 -9.942487e-001
    outer loop
      vertex  0.000000e+000  1.121914e+001 -1.183626e+000
      vertex  3.000000e+000  1.007769e+001 -1.060676e+000
      vertex  0.000000e+000  1.007769e+001 -1.060676e+000
    endloop
  endfacet
  facet normal  0.000000e+000  6.273123e-001 -7.787678e-001
    outer loop
      vertex  0.000000e+000  1.007769e+001 -1.060676e+000
      vertex  3.000000e+000  1.007769e+001 -1.060676e+000
      vertex  3.000000e+000  9.183626e+000 -1.780862e+000
    endloop
  endfacet
  facet normal  0.000000e+000  6.273123e-001 -7.787678e-001
    outer loop
      vertex  0.000000e+000  1.007769e+001 -1.060676e+000
      vertex  3.000000e+000  9.183626e+000 -1.780862e+000
      vertex  0.000000e+000  9.183626e+000 -1.780862e+000
    endloop
  endfacet
  facet normal  -0.000000e+000  7.787678e-001  6.273123e-001
    outer loop
      vertex  3.000000e+000 -1.121914e+001  9.183626e+000
      vertex  0.000000e+000 -1.193932e+001  1.007769e+001
      vertex  3.000000e+000 -1.193932e+001  1.007769e+001
    endloop
  endfacet
  facet normal  0.000000e+000  9.942487e-001 -1.070951e-001
    outer loop
      vertex  3.000000e+000 -1.193932e+001  1.007769e+001
      vertex  0.000000e+000 -1.193932e+001  1.007769e+001
      vertex -4.440892e-016 -1.181637e+001  1.121914e+001
    endloop
  endfacet
  facet normal  0.000000e+000  9.942487e-001 -1.070951e-001
    outer loop
      vertex  3.000000e+000 -1.193932e+001  1.007769e+001
      vertex -4.440892e-016 -1.181637e+001  1.121914e+001
      vertex  3.000000e+000 -1.181637e+001  1.121914e+001
    endloop
  endfacet
  facet normal  0.000000e+000  7.787678e-001  6.273123e-001
    outer loop
      vertex  0.000000e+000 -1.193932e+001  1.007769e+001
      vertex  3.000000e+000 -1.121914e+001  9.183626e+000
      vertex  0.000000e+000 -1.121914e+001  9.183626e+000
    endloop
  endfacet
  facet normal  -0.000000e+000  1.070951e-001  9.942487e-001
    outer loop
      vertex  0.000000e+000 -1.121914e+001  9.183626e+000
      vertex  3.000000e+000 -1.121914e+001  9.183626e+000
      vertex  3.000000e+000 -1.007769e+001  9.060676e+000
    endloop
  endfacet
  facet normal  0.000000e+000  1.070951e-001  9.942487e-001
    outer loop
      vertex  0.000000e+000 -1.121914e+001  9.183626e+000
      vertex  3.000000e+000 -1.007769e+001  9.060676e+000
      vertex  0.000000e+000 -1.007769e+001  9.060676e+000
    endloop
  endfacet
  facet normal  0.000000e+000 -6.273123e-001  7.787678e-001
    outer loop
      vertex  0.000000e+000 -1.007769e+001  9.060676e+000
      vertex  3.000000e+000 -1.007769e+001  9.060676e+000
      vertex  3.000000e+000 -9.183626e+000  9.780862e+000
    endloop
  endfacet
  facet normal  0.000000e+000 -6.273123e-001  7.787678e-001
    outer loop
      vertex  0.000000e+000 -1.007769e+001  9.060676e+000
      vertex  3.000000e+000 -9.183626e+000  9.780862e+000
      vertex -4.440892e-016 -9.183626e+000  9.780862e+000
    endloop
  endfacet
  facet normal  0.000000e+000 -7.787678e-001 -6.273123e-001
    outer loop
      vertex  3.000000e+000 -9.780862e+000  1.181637e+001
      vertex  0.000000e+000 -9.060676e+000  1.092231e+001
      vertex  3.000000e+000 -9.060676e+000  1.092231e+001
    endloop
  endfacet
  facet normal  0.000000e+000 -9.942487e-001  1.070951e-001
    outer loop
      vertex  3.000000e+000 -9.060676e+000  1.092231e+001
      vertex  0.000000e+000 -9.060676e+000  1.092231e+001
      vertex -4.440892e-016 -9.183626e+000  9.780862e+000
    endloop
  endfacet
  facet normal  0.000000e+000 -9.942487e-001  1.070951e-001
    outer loop
      vertex  3.000000e+000 -9.060676e+000  1.092231e+001
      vertex -4.440892e-016 -9.183626e+000  9.780862e+000
      vertex  3.000000e+000 -9.183626e+000  9.780862e+000
    endloop
  endfacet
  facet normal  -0.000000e+000 -7.787678e-001 -6.273123e-001
    outer loop
      vertex  0.000000e+000 -9.060676e+000  1.092231e+001
      vertex  3.000000e+000 -9.780862e+000  1.181637e+001
      vertex  0.000000e+000 -9.780862e+000  1.181637e+001
    endloop
  endfacet
  facet normal  0.000000e+000 -1.070951e-001 -9.942487e-001
    outer loop
      vertex  0.000000e+000 -9.780862e+000  1.181637e+001
      vertex  3.000000e+000 -9.780862e+000  1.181637e+001
      vertex  3.000000e+000 -1.092231e+001  1.193932e+001
    endloop
  endfacet
  facet normal  -0.000000e+000 -1.070951e-001 -9.942487e-001
    outer loop
      vertex  0.000000e+000 -9.780862e+000  1.181637e+001
      vertex  3.000000e+000 -1.092231e+001  1.193932e+001
      vertex  0.000000e+000 -1.092231e+001  1.193932e+001
    endloop
  endfacet
  facet normal  0.000000e+000  6.273123e-001 -7.787678e-001
    outer loop
      vertex  0.000000e+000 -1.092231e+001  1.193932e+001
      vertex  3.000000e+000 -1.092231e+001  1.193932e+001
      vertex  3.000000e+000 -1.181637e+001  1.121914e+001
    endloop
  endfacet
  facet normal  0.000000e+000  6.273123e-001 -7.787678e-001
    outer loop
      vertex  0.000000e+000 -1.092231e+001  1.193932e+001
      vertex  3.000000e+000 -1.181637e+001  1.121914e+001
      vertex -4.440892e-016 -1.181637e+001  1.121914e+001
    endloop
  endfacet
  facet normal  -0.000000e+000  7.787678e-001  6.273123e-001
    outer loop
      vertex  3.000000e+000  9.780862e+000  9.183626e+000
      vertex  0.000000e+000  9.060676e+000  1.007769e+001
      vertex  3.000000e+000  9.060676e+000  1.007769e+001
    endloop
  endfacet
  facet normal  0.000000e+000  9.942487e-001 -1.070951e-001
    outer loop
      vertex  3.000000e+000  9.060676e+000  1.007769e+001
      vertex  0.000000e+000  9.060676e+000  1.007769e+001
      vertex -4.440892e-016  9.183626e+000  1.121914e+001
    endloop
  endfacet
  facet normal  0.000000e+000  9.942487e-001 -1.070951e-001
    outer loop
      vertex  3.000000e+000  9.060676e+000  1.007769e+001
      vertex -4.440892e-016  9.183626e+000  1.121914e+001
      vertex  3.000000e+000  9.183626e+000  1.121914e+001
    endloop
  endfacet
  facet normal  0.000000e+000  7.787678e-001  6.273123e-001
    outer loop
      vertex  0.000000e+000  9.060676e+000  1.007769e+001
      vertex  3.000000e+000  9.780862e+000  9.183626e+000
      vertex  0.000000e+000  9.780862e+000  9.183626e+000
    endloop
  endfacet
  facet normal  -0.000000e+000  1.070951e-001  9.942487e-001
    outer loop
      vertex  0.000000e+000  9.780862e+000  9.183626e+000
      vertex  3.000000e+000  9.780862e+000  9.183626e+000
      vertex  3.000000e+000  1.092231e+001  9.060676e+000
    endloop
  endfacet
  facet normal  0.000000e+000  1.070951e-001  9.942487e-001
    outer loop
      vertex  0.000000e+000  9.780862e+000  9.183626e+000
      vertex  3.000000e+000  1.092231e+001  9.060676e+000
      vertex  0.000000e+000  1.092231e+001  9.060676e+000
    endloop
  endfacet
  facet normal  0.000000e+000 -6.273123e-001  7.787678e-001
    outer loop
      vertex  0.000000e+000  1.092231e+001  9.060676e+000
      vertex  3.000000e+000  1.092231e+001  9.060676e+000
      vertex  3.000000e+000  1.181637e+001  9.780862e+000
    endloop
  endfacet
  facet normal  0.000000e+000 -6.273123e-001  7.787678e-001
    outer loop
      vertex  0.000000e+000  1.092231e+001  9.060676e+000
      vertex  3.000000e+000  1.181637e+001  9.780862e+000
      vertex -4.440892e-016  1.181637e+001  9.780862e+000
    endloop
  endfacet
  facet normal  0.000000e+000 -7.787678e-001 -6.273123e-001
    outer loop
      vertex  3.000000e+000  1.121914e+001  1.181637e+001
      vertex  0.000000e+000  1.193932e+001  1.092231e+001
      vertex  3.000000e+000  1.193932e+001  1.092231e+001
    endloop
  endfacet
  facet normal  0.000000e+000 -9.942487e-001  1.070951e-001
    outer loop
      vertex  3.000000e+000  1.193932e+001  1.092231e+001
      vertex  0.000000e+000  1.193932e+001  1.092231e+001
      vertex -4.440892e-016  1.181637e+001  9.780862e+000
    endloop
  endfacet
  facet normal  0.000000e+000 -9.942487e-001  1.070951e-001
    outer loop
      vertex  3.000000e+000  1.193932e+001  1.092231e+001
      vertex -4.440892e-016  1.181637e+001  9.780862e+000
      vertex  3.000000e+000  1.181637e+001  9.780862e+000
    endloop
  endfacet
  facet normal  -0.000000e+000 -7.787678e-001 -6.273123e-001
    outer loop
      vertex  0.000000e+000  1.193932e+001  1.092231e+001
      vertex  3.000000e+000  1.121914e+001  1.181637e+001
      vertex  0.000000e+000  1.121914e+001  1.181637e+001
    endloop
  endfacet
  facet normal  0.000000e+000 -1.070951e-001 -9.942487e-001
    outer loop
      vertex  0.000000e+000  1.121914e+001  1.181637e+001
      vertex  3.000000e+000  1.121914e+001  1.181637e+001
      vertex  3.000000e+000  1.007769e+001  1.193932e+001
    endloop
  endfacet
  facet normal  -0.000000e+000 -1.070951e-001 -9.942487e-001
    outer loop
      vertex  0.000000e+000  1.121914e+001  1.181637e+001
      vertex  3.000000e+000  1.007769e+001  1.193932e+001
      vertex  0.000000e+000  1.007769e+001  1.193932e+001
    endloop
  endfacet
  facet normal  0.000000e+000  6.273123e-001 -7.787678e-001
    outer loop
      vertex  0.000000e+000  1.007769e+001  1.193932e+001
      vertex  3.000000e+000  1.007769e+001  1.193932e+001
      vertex  3.000000e+000  9.183626e+000  1.121914e+001
    endloop
  endfacet
  facet normal  0.000000e+000  6.273123e-001 -7.787678e-001
    outer loop
      vertex  0.000000e+000  1.007769e+001  1.193932e+001
      vertex  3.000000e+000  9.183626e+000  1.121914e+001
      vertex -4.440892e-016  9.183626e+000  1.121914e+001
    endloop
  endfacet
  facet normal  0.000000e+000  1.000000e+000  -0.000000e+000
    outer loop
      vertex  3.000000e+000  1.250000e+001  1.250000e+001
      vertex  3.000000e+000  1.250000e+001 -1.250000e+001
      vertex  0.000000e+000  1.250000e+001  1.250000e+001
    endloop
  endfacet
  facet normal  0.000000e+000  1.000000e+000  0.000000e+000
    outer loop
      vertex  0.000000e+000  1.250000e+001  1.250000e+001
      vertex  3.000000e+000  1.250000e+001 -1.250000e+001
      vertex  0.000000e+000  1.250000e+001 -1.250000e+001
    endloop
  endfacet
  facet normal  0.000000e+000  0.000000e+000 -1.000000e+000
    outer loop
      vertex  3.000000e+000  1.250000e+001 -1.250000e+001
      vertex  3.000000e+000 -1.250000e+001 -1.250000e+001
      vertex  0.000000e+000  1.250000e+001 -1.250000e+001
    endloop
  endfacet
  facet normal  0.000000e+000  0.000000e+000 -1.000000e+000
    outer loop
      vertex  0.000000e+000  1.250000e+001 -1.250000e+001
      vertex  3.000000e+000 -1.250000e+001 -1.250000e+001
      vertex  0.000000e+000 -1.250000e+001 -1.250000e+001
    endloop
  endfacet
  facet normal  0.000000e+000 -1.000000e+000  -0.000000e+000
    outer loop
      vertex  3.000000e+000 -1.250000e+001 -1.250000e+001
      vertex  3.000000e+000 -1.250000e+001  1.250000e+001
      vertex  0.000000e+000 -1.250000e+001 -1.250000e+001
    endloop
  endfacet
  facet normal  0.000000e+000 -1.000000e+000  0.000000e+000
    outer loop
      vertex  0.000000e+000 -1.250000e+001 -1.250000e+001
      vertex  3.000000e+000 -1.250000e+001  1.250000e+001
      vertex  0.000000e+000 -1.250000e+001  1.250000e+001
    endloop
  endfacet
  facet normal  0.000000e+000  0.000000e+000  1.000000e+000
    outer loop
      vertex  3.000000e+000 -1.250000e+001  1.250000e+001
      vertex  3.000000e+000  1.250000e+001  1.250000e+001
      vertex  0.000000e+000 -1.250000e+001  1.250000e+001
    endloop
  endfacet
  facet normal  0.000000e+000  0.000000e+000  1.000000e+000
    outer loop
      vertex  0.000000e+000 -1.250000e+001  1.250000e+001
      vertex  3.000000e+000  1.250000e+001  1.250000e+001
      vertex  0.000000e+000  1.250000e+001  1.250000e+001
    endloop
  endfacet
endsolid CATIA STL
